<?xml version="1.0" encoding="UTF-8" standalone="no"?>
<svg
   xmlns:dc="http://purl.org/dc/elements/1.1/"
   xmlns:cc="http://creativecommons.org/ns#"
   xmlns:rdf="http://www.w3.org/1999/02/22-rdf-syntax-ns#"
   xmlns:svg="http://www.w3.org/2000/svg"
   xmlns="http://www.w3.org/2000/svg"
   viewBox="0 0 967.15997 136.02667"
   height="136.02667"
   width="967.15997"
   xml:space="preserve"
   id="svg2"
   version="1.1"><metadata
     id="metadata8"><rdf:RDF><cc:Work
         rdf:about=""><dc:format>image/svg+xml</dc:format><dc:type
           rdf:resource="http://purl.org/dc/dcmitype/StillImage" /></cc:Work></rdf:RDF></metadata><defs
     id="defs6" /><g
     transform="matrix(1.3333333,0,0,-1.3333333,0,136.02667)"
     id="g10"><g
       transform="scale(0.1)"
       id="g12"><path
         id="path14"
         style="fill:#100f0d;fill-opacity:1;fill-rule:nonzero;stroke:none"
         d="M 4347.17,110.254 V 141.59 H 5575.92 V 110.254 H 4347.17" /><path
         id="path16"
         style="fill:#100f0d;fill-opacity:1;fill-rule:nonzero;stroke:none"
         d="M 1704.21,110.254 V 141.59 H 2932.96 V 110.254 H 1704.21" /><path
         id="path18"
         style="fill:#231f20;fill-opacity:1;fill-rule:nonzero;stroke:none"
         d="m 3183.3,138.16 c 0,-4.972 1.14,-9.058 3.42,-12.246 2.28,-3.191 5.32,-5.769 9.14,-7.75 3.82,-1.976 8.24,-3.605 13.26,-4.883 5.02,-1.269 10.21,-2.426 15.57,-3.441 7.37,-1.531 14.33,-3.223 20.9,-5.074 6.55,-1.844 12.61,-4.621 18.17,-8.3246 5.57,-3.6953 10.05,-8.7031 13.47,-15.0156 3.41,-6.3125 5.12,-14.5156 5.12,-24.5899 0,-9.1875 -1.92,-17.3203 -5.76,-24.3984 -3.83,-7.0742 -9.24,-13.0078 -16.23,-17.7969 C 3253.37,9.85938 3245.02,6.21875 3235.3,3.73047 3225.57,1.25 3214.88,0 3203.24,0 c -7.13,0 -13.6,0.359375 -19.42,1.05859 -5.83,0.70313 -10.96,1.60157 -15.41,2.67188 -4.45,1.08984 -8.26,2.21094 -11.41,3.35937 -3.15,1.14063 -5.75,2.21875 -7.8,3.24996 v 24.875 c 8.06,-3.0664 16.06,-5.4921 24.01,-7.2734 7.93,-1.7891 16.67,-2.6797 26.22,-2.6797 7.53,0 14.32,0.6367 20.37,1.9141 6.06,1.2773 11.27,3.1601 15.64,5.6445 4.38,2.4883 7.74,5.6172 10.09,9.3789 2.35,3.7578 3.53,8.1367 3.53,13.1094 0,5.1016 -1.07,9.3086 -3.23,12.6289 -2.15,3.3125 -5.04,6.0508 -8.67,8.2227 -3.63,2.1679 -7.84,3.957 -12.61,5.3554 -4.78,1.4102 -9.78,2.6875 -15.03,3.836 -6.85,1.3984 -13.81,3.0586 -20.88,4.9726 -7.06,1.9102 -13.48,4.5899 -19.26,8.0391 -5.78,3.4417 -10.45,8.1327 -14.02,14.0627 -3.56,5.929 -5.34,13.547 -5.34,22.867 0,9.562 1.85,17.855 5.54,24.871 3.71,7.016 8.7,12.824 15.01,17.414 6.29,4.598 13.62,8.039 21.98,10.336 8.36,2.293 17.19,3.441 26.51,3.441 10.82,0 20.86,-0.957 30.11,-2.867 9.24,-1.914 17.63,-4.34 25.17,-7.269 v -25.262 c -8.02,2.93 -16.15,5.324 -24.37,7.176 -8.22,1.851 -16.67,2.84 -25.36,2.969 -7.35,0 -13.63,-0.704 -18.85,-2.106 -5.21,-1.406 -9.49,-3.351 -12.83,-5.836 -3.35,-2.484 -5.79,-5.426 -7.32,-8.805 -1.53,-3.382 -2.31,-7.117 -2.31,-11.195" /><path
         id="path20"
         style="fill:#231f20;fill-opacity:1;fill-rule:nonzero;stroke:none"
         d="m 3433.58,4.41016 c -2.74,-1.03125 -6.91,-1.98047 -12.53,-2.8711 C 3415.43,0.640625 3408.72,0.128906 3400.91,0 c -10.27,0 -19.18,1.19141 -26.71,3.53906 -7.54,2.3711 -13.8,5.75 -18.81,10.15234 -4.99,4.3984 -8.72,9.7188 -11.19,15.9688 -2.47,6.2539 -3.7,13.207 -3.7,20.8632 V 161.121 h -37.6 v 25.453 h 37.6 v 49.75 h 31.85 v -49.75 h 58.36 v -25.453 h -58.36 V 55.1133 c 0,-4.207 0.65,-8.1016 1.95,-11.6719 1.3,-3.5742 3.36,-6.6641 6.17,-9.2812 2.8,-2.6172 6.4,-4.6563 10.78,-6.1211 4.39,-1.4688 9.66,-2.2032 15.82,-2.2032 4.25,0 8.74,0.3164 13.47,0.9571 4.73,0.6367 9.07,1.4687 13.04,2.4883 V 4.41016" /><path
         id="path22"
         style="fill:#231f20;fill-opacity:1;fill-rule:nonzero;stroke:none"
         d="m 3554.21,0 c -10.15,0 -19.25,1.03125 -27.33,3.07031 -8.09,2.03125 -15.18,4.89844 -21.27,8.60939 -6.1,3.6992 -11.27,8.1289 -15.51,13.293 -4.26,5.1718 -7.61,10.8164 -10.07,16.9375 -1.92,4.5898 -3.29,9.6328 -4.12,15.1171 -0.82,5.4844 -1.23,11.4844 -1.23,17.9883 V 186.574 h 31.85 V 75.207 c 0,-10.0781 1.44,-18.5 4.32,-25.2578 3.28,-7.6562 8.59,-13.6836 15.92,-18.082 7.33,-4.4024 16.68,-6.6055 28.05,-6.6055 12.06,0 21.75,2.4258 29.08,7.2696 7.33,4.8515 12.57,11.3515 15.72,19.5234 2.33,6.2422 3.49,13.9687 3.49,23.1523 v 111.367 h 31.85 V 74.8242 c 0,-6.1211 -0.38,-11.8359 -1.13,-17.125 -0.75,-5.3008 -1.95,-10.1719 -3.59,-14.6406 -2.47,-6.25 -5.86,-12.0273 -10.18,-17.3125 -4.31,-5.3047 -9.62,-9.8672 -15.92,-13.6875 -6.3,-3.82813 -13.6,-6.79688 -21.89,-8.89844 C 3573.96,1.05859 3564.61,0 3554.21,0" /><path
         id="path24"
         style="fill:#231f20;fill-opacity:1;fill-rule:nonzero;stroke:none"
         d="m 3716.54,93.7656 c 0,-10.457 1.27,-19.9297 3.81,-28.414 2.53,-8.4844 6.19,-15.6914 10.99,-21.6211 4.79,-5.9336 10.68,-10.4961 17.67,-13.6836 6.99,-3.1914 15,-4.7852 24.04,-4.7852 6.71,0 12.81,0.8281 18.29,2.4883 5.48,1.6602 10.38,3.7656 14.69,6.3203 4.32,2.5469 8.01,5.2539 11.09,8.1289 3.09,2.8711 5.52,5.5196 7.3,7.9453 v 95.0935 c -6.58,6.25 -14.17,11.262 -22.8,15.028 -8.64,3.754 -17.95,5.644 -27.95,5.644 -6.03,0 -12.37,-1.055 -19.01,-3.16 -6.65,-2.105 -12.81,-5.898 -18.49,-11.383 -5.69,-5.484 -10.38,-12.851 -14.08,-22.101 -3.69,-9.25 -5.55,-21.086 -5.55,-35.5004 z m -33.28,-0.3828 c 0,12.6332 1.33,23.8242 4,33.5862 2.68,9.754 6.19,18.269 10.59,25.547 4.37,7.265 9.51,13.355 15.4,18.265 5.89,4.914 11.99,8.907 18.3,11.969 6.29,3.059 12.7,5.262 19.21,6.602 6.5,1.339 12.64,2.003 18.39,2.003 11.92,0 22.25,-1.851 31.02,-5.546 8.77,-3.704 16.65,-9.121 23.63,-16.266 h 0.62 v 112.324 h 31.85 V 4.78906 h -24.04 l -6.57,20.28124 h -0.82 c -2.47,-2.9375 -5.35,-5.8984 -8.63,-8.8984 -3.29,-2.9922 -7.16,-5.7031 -11.62,-8.13284 C 3800.14,5.62109 3795,3.67188 3789.19,2.19922 3783.36,0.738281 3776.62,0 3768.94,0 c -10.69,0 -21.17,1.69922 -31.44,5.07031 -10.28,3.37891 -19.42,8.80859 -27.43,16.26949 -8.02,7.4649 -14.49,17.0977 -19.42,28.8946 -4.93,11.7969 -7.39,26.1797 -7.39,43.1484" /><path
         id="path26"
         style="fill:#231f20;fill-opacity:1;fill-rule:nonzero;stroke:none"
         d="M 3922.03,4.78906 V 186.574 h 31.86 V 4.78906 Z m -0.82,224.07794 v 33.102 h 31.85 v -33.102 h -31.85" /><path
         id="path28"
         style="fill:#231f20;fill-opacity:1;fill-rule:nonzero;stroke:none"
         d="m 4158.34,95.4883 c 0,11.2227 -1.47,21.2067 -4.42,29.9497 -2.94,8.738 -7.06,16.136 -12.33,22.195 -5.27,6.058 -11.54,10.648 -18.8,13.777 -7.27,3.121 -15.21,4.692 -23.84,4.692 -8.63,0 -16.57,-1.571 -23.83,-4.692 -7.27,-3.129 -13.53,-7.719 -18.8,-13.777 -5.28,-6.059 -9.39,-13.457 -12.33,-22.195 -2.95,-8.743 -4.42,-18.727 -4.42,-29.9497 0,-11.0938 1.47,-21.0156 4.42,-29.7539 2.94,-8.7383 7.09,-16.1055 12.43,-22.1016 5.34,-6 11.64,-10.5586 18.9,-13.6797 7.26,-3.1289 15.21,-4.6914 23.84,-4.6914 8.63,0 16.54,1.5625 23.73,4.6914 7.19,3.1211 13.43,7.6797 18.7,13.6797 5.27,5.9961 9.39,13.3633 12.33,22.1016 2.95,8.7383 4.42,18.6601 4.42,29.7539 z m 33.29,0 c 0,-14.2852 -2.19,-27.2969 -6.58,-39.0352 -4.38,-11.7343 -10.58,-21.7851 -18.6,-30.1328 -8.01,-8.3594 -17.7,-14.8398 -29.07,-19.42967 C 4126.01,2.30078 4113.27,0 4099.16,0 c -14.52,0 -27.5,2.30078 -38.94,6.89063 -11.44,4.58987 -21.16,11.07027 -29.18,19.42967 -8.01,8.3477 -14.15,18.3985 -18.39,30.1328 -4.25,11.7383 -6.37,24.75 -6.37,39.0352 0,14.4137 2.19,27.4887 6.58,39.2307 4.38,11.734 10.58,21.812 18.59,30.234 8.01,8.414 17.75,14.926 29.18,19.516 11.44,4.59 24.22,6.886 38.32,6.886 14.39,0 27.33,-2.296 38.84,-6.886 11.51,-4.59 21.24,-11.102 29.18,-19.516 7.95,-8.422 14.04,-18.5 18.29,-30.234 4.25,-11.742 6.37,-24.817 6.37,-39.2307" /><path
         id="path30"
         style="fill:#231f20;fill-opacity:1;fill-rule:nonzero;stroke:none"
         d="M 226.477,940.148 C 204.461,882.953 183.43,830.969 163.398,784.215 l -18.453,-43.277 h 163.578 l -18.714,43.238 c -20.25,47.594 -40.868,99.59 -61.864,155.972 z M 0,552.023 201.023,1011.6 h 52.008 L 454.051,552.023 H 388.77 L 329.828,690.441 H 123.488 L 64.5469,552.023 H 0" /><path
         id="path32"
         style="fill:#231f20;fill-opacity:1;fill-rule:nonzero;stroke:none"
         d="M 589.793,1011.6 V 602.516 H 830.645 V 552.023 H 529.668 V 1011.6 h 60.125" /><path
         id="path34"
         style="fill:#231f20;fill-opacity:1;fill-rule:nonzero;stroke:none"
         d="M 982.973,602.516 H 1236 V 552.023 H 922.848 V 1011.6 H 1222.35 V 961.102 H 982.973 V 812.723 H 1195.8 V 762.227 H 982.973 V 602.516" /><path
         id="path36"
         style="fill:#231f20;fill-opacity:1;fill-rule:nonzero;stroke:none"
         d="m 1499.36,825.43 136.47,186.17 h 66.77 l -167.46,-226.358 175.2,-233.219 h -67.5 l -144.59,194.75 h -1.48 l -144.58,-194.75 h -68.24 l 176.68,234.594 -165.98,224.983 h 66.02 l 137.21,-186.17 h 1.48" /><path
         id="path38"
         style="fill:#231f20;fill-opacity:1;fill-rule:nonzero;stroke:none"
         d="m 1957.1,940.148 c -22.02,-57.195 -43.05,-109.179 -63.08,-155.933 l -18.45,-43.277 h 163.57 l -18.71,43.238 c -20.25,47.594 -40.87,99.59 -61.86,155.972 z M 1730.62,552.023 1931.64,1011.6 h 52.01 l 201.02,-459.577 h -65.28 l -58.94,138.418 h -206.34 l -58.94,-138.418 h -64.55" /><path
         id="path40"
         style="fill:#231f20;fill-opacity:1;fill-rule:nonzero;stroke:none"
         d="m 2513.69,755.359 c 30.24,-40.527 60.11,-82.207 89.62,-125.023 h 2.21 c -3.19,44.652 -4.79,90.211 -4.79,136.703 V 1011.6 h 60.49 V 552.023 h -60.12 l -193.64,256.231 c -33.45,44.656 -63.32,86.328 -89.63,125.023 h -2.22 c 3.2,-41.902 4.8,-90.797 4.8,-146.66 V 552.023 h -60.12 V 1011.6 h 59.75 l 193.65,-256.241" /><path
         id="path42"
         style="fill:#231f20;fill-opacity:1;fill-rule:nonzero;stroke:none"
         d="m 3126.33,783.871 c 0,44.192 -10.47,80.024 -31.4,107.504 -20.93,27.48 -50.95,46.938 -90.07,58.391 -14.95,4.351 -31.65,7.328 -50.08,8.933 -18.45,1.602 -39.25,2.403 -62.42,2.403 h -45.98 V 602.516 h 45.98 c 23.17,0 43.97,0.797 62.42,2.402 18.43,1.602 35.13,4.574 50.08,8.93 39.12,11.453 69.14,31.48 90.07,60.109 20.93,28.621 31.4,65.258 31.4,109.914 z m 59.76,0 c 0,-26.793 -3.57,-51.984 -10.7,-75.562 -7.13,-23.586 -17.89,-44.825 -32.27,-63.723 -14.39,-18.891 -32.34,-35.199 -53.86,-48.941 -21.52,-13.739 -46.66,-24.387 -75.42,-31.946 -16.48,-4.347 -34.31,-7.383 -53.49,-9.097 -19.18,-1.723 -39.96,-2.579 -62.33,-2.579 H 2786.26 V 1011.6 h 112.87 c 22.37,0 43.15,-0.87 62.33,-2.58 19.18,-1.72 37.01,-4.76 53.48,-9.106 28.77,-7.559 53.91,-18.094 75.43,-31.598 21.52,-13.515 39.34,-29.484 53.48,-47.914 14.14,-18.437 24.72,-39.156 31.73,-62.168 7,-23.011 10.51,-47.808 10.51,-74.363" /><path
         id="path44"
         style="fill:#231f20;fill-opacity:1;fill-rule:nonzero;stroke:none"
         d="M 3353.18,961.102 V 792.801 h 59.38 c 18.44,0 34.17,0.566 47.21,1.711 13.03,1.148 24.71,3.207 35.04,6.191 20.89,5.953 37,15.453 48.32,28.504 11.31,13.055 16.96,30.106 16.96,51.176 -0.24,19.691 -5.65,35.551 -16.23,47.578 -10.57,12.019 -25.2,20.656 -43.89,25.926 -8.85,2.519 -19.43,4.347 -31.72,5.496 -12.3,1.144 -27.91,1.719 -46.84,1.719 z m 0,-218.797 V 552.023 h -60.13 V 1011.6 h 127.85 c 21.61,0 39.97,-0.75 55.07,-2.24 15.11,-1.49 28.93,-3.84 41.46,-7.04 34.38,-8.703 60.66,-23.531 78.84,-44.484 18.18,-20.945 27.27,-47.113 27.27,-78.481 0,-18.55 -3.2,-35.152 -9.6,-49.8 -6.39,-14.66 -15.37,-27.367 -26.92,-38.133 -11.56,-10.766 -25.39,-19.578 -41.5,-26.445 -16.1,-6.864 -33.99,-11.907 -53.66,-15.114 v -1.375 l 146.06,-196.465 h -60.12 l -151.97,190.282 h -72.65" /><path
         id="path46"
         style="fill:#231f20;fill-opacity:1;fill-rule:nonzero;stroke:none"
         d="m 3916.77,940.148 c -22.02,-57.195 -43.05,-109.179 -63.08,-155.933 l -18.45,-43.277 h 163.58 l -18.72,43.238 c -20.25,47.594 -40.87,99.59 -61.86,155.972 z M 3690.29,552.023 3891.32,1011.6 h 52.01 l 201.01,-459.577 h -65.28 l -58.94,138.418 h -206.34 l -58.94,-138.418 h -64.55" /><path
         id="path48"
         style="fill:#231f20;fill-opacity:1;fill-rule:nonzero;stroke:none"
         d="m 4400.7,890.008 c 0,-13.52 2.94,-24.684 8.82,-33.496 5.88,-8.813 13.79,-16.086 23.72,-21.813 9.93,-5.719 21.46,-10.418 34.58,-14.074 13.12,-3.672 26.79,-7.109 41.01,-10.305 19.12,-4.355 37.95,-9.168 56.45,-14.429 18.52,-5.274 35.01,-12.539 49.48,-21.813 14.47,-9.273 26.17,-21.351 35.12,-36.23 8.95,-14.891 13.43,-34.008 13.43,-57.364 0,-23.816 -4.84,-44.367 -14.54,-61.656 -9.69,-17.293 -23.09,-31.484 -40.2,-42.59 -17.12,-11.109 -37.35,-19.347 -60.71,-24.726 -23.36,-5.379 -48.93,-8.074 -76.72,-8.074 -12.79,0 -25.88,0.742 -39.28,2.226 -13.41,1.492 -26.19,3.496 -38.36,6.016 -12.17,2.515 -23.17,5.379 -33.01,8.59 -9.83,3.199 -17.58,6.406 -23.24,9.617 v 51.176 c 8.85,-4.125 18.81,-7.907 29.88,-11.333 11.07,-3.433 22.5,-6.355 34.3,-8.757 11.81,-2.41 23.73,-4.301 35.78,-5.672 12.05,-1.375 23.36,-2.059 33.93,-2.059 17.21,0 33.63,1.371 49.24,4.117 15.62,2.746 29.33,7.329 41.13,13.743 11.81,6.41 21.15,15.168 28.03,26.277 6.88,11.101 10.33,25.012 10.33,41.726 0,13.743 -3.01,25.079 -9.03,34.008 -6.03,8.926 -14.09,16.317 -24.17,22.157 -10.08,5.835 -21.7,10.585 -34.85,14.25 -13.16,3.664 -26.99,7.093 -41.5,10.304 -19.18,4.125 -37.93,8.762 -56.24,13.91 -18.33,5.157 -34.68,12.309 -49.06,21.469 -14.39,9.156 -25.95,20.953 -34.67,35.383 -8.74,14.422 -13.1,32.852 -13.1,55.297 0,23.355 4.58,43.449 13.76,60.277 9.18,16.832 21.59,30.742 37.26,41.735 15.66,10.996 33.69,19.115 54.11,24.385 20.4,5.27 42.16,7.9 65.28,7.9 26.31,0 50.84,-2.35 73.58,-7.04 22.75,-4.69 43.59,-10.82 62.52,-18.374 v -51.871 c -20.41,8.019 -41.49,14.543 -63.25,19.585 -21.77,5.036 -45.06,7.665 -69.9,7.895 -18.69,0 -34.92,-1.891 -48.69,-5.668 -13.77,-3.773 -25.2,-9.16 -34.3,-16.144 -9.1,-6.985 -15.86,-15.454 -20.29,-25.415 -4.42,-9.96 -6.63,-21.007 -6.63,-33.14" /><path
         id="path50"
         style="fill:#231f20;fill-opacity:1;fill-rule:nonzero;stroke:none"
         d="m 4829.66,812.723 h 258.56 V 1011.6 h 60.12 V 552.023 h -60.12 V 762.227 H 4829.66 V 552.023 h -60.12 V 1011.6 h 60.12 V 812.723" /><path
         id="path52"
         style="fill:#231f20;fill-opacity:1;fill-rule:nonzero;stroke:none"
         d="M 5273.75,552.023 V 1011.6 h 60.12 V 784.551 h 0.74 l 226.84,227.049 h 60.12 L 5391.41,782.84 5635.22,552.023 H 5575.1 L 5334.61,777 h -0.74 V 552.023 h -60.12" /><path
         id="path54"
         style="fill:#231f20;fill-opacity:1;fill-rule:nonzero;stroke:none"
         d="M 5790.87,1011.6 V 602.516 h 240.85 V 552.023 H 5730.74 V 1011.6 h 60.13" /><path
         id="path56"
         style="fill:#231f20;fill-opacity:1;fill-rule:nonzero;stroke:none"
         d="m 6216.15,736.813 v -184.79 h -60.12 v 184.79 L 5976.39,1011.6 h 65.66 l 143.11,-223.268 h 1.85 l 143.11,223.268 h 65.65 L 6216.15,736.813" /><path
         id="path58"
         style="fill:#231f20;fill-opacity:1;fill-rule:nonzero;stroke:none"
         d="m 6605.65,940.148 c -22.02,-57.195 -43.05,-109.179 -63.08,-155.933 l -18.45,-43.277 h 163.57 l -18.71,43.238 c -20.25,47.594 -40.87,99.59 -61.86,155.972 z M 6379.17,552.023 6580.19,1011.6 h 52.01 l 201.02,-459.577 h -65.28 L 6709,690.441 h -206.34 l -58.94,-138.418 h -64.55" /><path
         id="path60"
         style="fill:#231f20;fill-opacity:1;fill-rule:nonzero;stroke:none"
         d="M 6968.96,961.102 V 792.801 h 59.39 c 18.43,0 34.17,0.566 47.21,1.711 13.03,1.148 24.71,3.207 35.04,6.191 20.89,5.953 37,15.453 48.32,28.504 11.3,13.055 16.96,30.106 16.96,51.176 -0.25,19.691 -5.66,35.551 -16.23,47.578 -10.57,12.019 -25.21,20.656 -43.89,25.926 -8.85,2.519 -19.43,4.347 -31.72,5.496 -12.3,1.144 -27.92,1.719 -46.84,1.719 z m 0,-218.797 V 552.023 h -60.12 V 1011.6 h 127.84 c 21.62,0 39.98,-0.75 55.08,-2.24 15.11,-1.49 28.93,-3.84 41.46,-7.04 34.38,-8.703 60.66,-23.531 78.84,-44.484 18.17,-20.945 27.26,-47.113 27.26,-78.481 0,-18.55 -3.19,-35.152 -9.59,-49.8 -6.4,-14.66 -15.37,-27.367 -26.92,-38.133 -11.56,-10.766 -25.39,-19.578 -41.5,-26.445 -16.1,-6.864 -34,-11.907 -53.67,-15.114 v -1.375 l 146.07,-196.465 h -60.12 l -151.97,190.282 h -72.66" /></g></g></svg>